STARTFONT 2.1
FONT -sun-helmetcondensed-bold-r-semicondensed--20-200-75-75-p-95-adobe-fontspecific
SIZE 20 75 75
FONTBOUNDINGBOX 22 23 -4 -4

STARTPROPERTIES 28
FOUNDRY "sun"
FAMILY_NAME "helmetcondensed"
WEIGHT_NAME "bold"
SLANT "r"
SETWIDTH_NAME "semicondensed"
ADD_STYLE_NAME ""
PIXEL_SIZE 21
POINT_SIZE 200
RESOLUTION_X 75
RESOLUTION_Y 75
SPACING "p"
AVERAGE_WIDTH 95
CHARSET_REGISTRY "adobe"
CHARSET_ENCODING "fontspecific"
COPYRIGHT "© 1999 Sun Microsystems, Inc."
RAW_PIXELSIZE 1000
RAW_POINTSIZE 964
RAW_ASCENT 900
RAW_DESCENT 196
RAW_AVERAGE_WIDTH 4548
FACE_NAME "HelmetCondensedBoldnsedB5"
_XMBDFED_INFO "Edited with xmbdfed 2.4."
WEIGHT 10
X_HEIGHT -2
QUAD_WIDTH 11
DEFAULT_CHAR 4
FONT_DESCENT 4
FONT_ASCENT 19
ENDPROPERTIES

CHARS 210

STARTCHAR char32
ENCODING 32
SWIDTH 21 0
DWIDTH 5 0
BBX 0 0 0 0
BITMAP
ENDCHAR

STARTCHAR char33
ENCODING 33
SWIDTH 21 0
DWIDTH 5 0
BBX 2 15 2 0
BITMAP
C0
C0
C0
C0
C0
C0
C0
C0
C0
C0
C0
00
00
00
C0
ENDCHAR

STARTCHAR char34
ENCODING 34
SWIDTH 30 0
DWIDTH 7 0
BBX 5 5 1 10
BITMAP
C0
D8
48
48
90
ENDCHAR

STARTCHAR char35
ENCODING 35
SWIDTH 3 0
DWIDTH 11 0
BBX 10 15 0 0
BITMAP
0880
1980
1980
1980
7FC0
1100
1100
1100
3300
FFC0
7FC0
2200
2200
2200
2200
ENDCHAR

STARTCHAR char36
ENCODING 36
SWIDTH 43 0
DWIDTH 10 0
BBX 9 18 0 -2
BITMAP
1800
3C00
7F00
CB00
D980
D800
5800
7800
1E00
0F00
0980
C980
C980
C980
6F00
3E00
0800
0800
ENDCHAR

STARTCHAR char37
ENCODING 37
SWIDTH 25 0
DWIDTH 16 0
BBX 15 15 0 0
BITMAP
7030
5820
CC40
CC40
CC80
CC80
CD3C
CD26
5A66
7266
0466
0466
0866
1866
103C
ENDCHAR

STARTCHAR char38
ENCODING 38
SWIDTH 8 0
DWIDTH 12 0
BBX 11 14 0 0
BITMAP
3E00
6300
6300
7300
3600
3C00
7C00
6CC0
C6C0
83C0
C380
C180
63C0
3EE0
ENDCHAR

STARTCHAR char39
ENCODING 39
SWIDTH 12 0
DWIDTH 3 0
BBX 3 5 0 10
BITMAP
20
E0
C0
C0
E0
ENDCHAR

STARTCHAR char40
ENCODING 40
SWIDTH 25 0
DWIDTH 6 0
BBX 4 18 1 -3
BITMAP
10
20
60
60
40
C0
C0
C0
C0
C0
C0
C0
40
40
60
20
30
10
ENDCHAR

STARTCHAR char41
ENCODING 41
SWIDTH 25 0
DWIDTH 6 0
BBX 4 18 0 -3
BITMAP
C0
40
60
60
20
30
30
30
30
30
30
30
30
20
60
40
40
80
ENDCHAR

STARTCHAR char42
ENCODING 42
SWIDTH 30 0
DWIDTH 7 0
BBX 6 6 0 9
BITMAP
10
20
FC
30
28
48
ENDCHAR

STARTCHAR char43
ENCODING 43
SWIDTH 3 0
DWIDTH 11 0
BBX 9 9 0 2
BITMAP
0C00
0C00
0C00
0C00
FF80
0C00
0C00
0C00
0C00
ENDCHAR

STARTCHAR char44
ENCODING 44
SWIDTH 17 0
DWIDTH 4 0
BBX 2 4 1 -3
BITMAP
C0
40
C0
80
ENDCHAR

STARTCHAR char45
ENCODING 45
SWIDTH 30 0
DWIDTH 7 0
BBX 5 1 0 5
BITMAP
F8
ENDCHAR

STARTCHAR char46
ENCODING 46
SWIDTH 17 0
DWIDTH 4 0
BBX 2 1 1 0
BITMAP
C0
ENDCHAR

STARTCHAR char47
ENCODING 47
SWIDTH 25 0
DWIDTH 6 0
BBX 6 15 0 0
BITMAP
08
08
08
18
10
10
30
30
20
20
60
40
40
40
C0
ENDCHAR

STARTCHAR char48
ENCODING 48
SWIDTH 43 0
DWIDTH 10 0
BBX 9 14 0 0
BITMAP
3E00
6300
C380
C180
C180
C180
C180
C180
C180
C180
C180
6300
6300
3E00
ENDCHAR

STARTCHAR char49
ENCODING 49
SWIDTH 43 0
DWIDTH 10 0
BBX 5 15 1 0
BITMAP
18
18
18
F8
18
18
18
18
18
18
18
18
18
18
18
ENDCHAR

STARTCHAR char50
ENCODING 50
SWIDTH 43 0
DWIDTH 10 0
BBX 7 14 1 0
BITMAP
7C
C6
86
86
06
06
0C
18
30
60
C0
C0
80
FE
ENDCHAR

STARTCHAR char51
ENCODING 51
SWIDTH 43 0
DWIDTH 10 0
BBX 8 14 0 0
BITMAP
3C
43
C3
C3
03
06
1C
03
03
03
C3
C3
63
3E
ENDCHAR

STARTCHAR char52
ENCODING 52
SWIDTH 43 0
DWIDTH 10 0
BBX 8 15 0 0
BITMAP
06
06
0E
0E
16
36
26
66
46
C6
FF
06
06
06
06
ENDCHAR

STARTCHAR char53
ENCODING 53
SWIDTH 43 0
DWIDTH 10 0
BBX 9 14 0 0
BITMAP
3F80
6000
6000
6000
6000
5F00
6380
0180
0180
0180
C180
4380
6300
3E00
ENDCHAR

STARTCHAR char54
ENCODING 54
SWIDTH 43 0
DWIDTH 10 0
BBX 9 14 0 0
BITMAP
3E00
6300
6180
C000
C000
FF00
E300
C180
C180
C180
C180
6380
6300
3E00
ENDCHAR

STARTCHAR char55
ENCODING 55
SWIDTH 43 0
DWIDTH 10 0
BBX 8 14 0 0
BITMAP
FF
03
02
06
04
0C
08
18
18
10
30
30
30
30
ENDCHAR

STARTCHAR char56
ENCODING 56
SWIDTH 43 0
DWIDTH 10 0
BBX 8 15 0 0
BITMAP
1C
26
63
63
63
63
36
3C
63
63
E3
C3
43
62
3C
ENDCHAR

STARTCHAR char57
ENCODING 57
SWIDTH 43 0
DWIDTH 10 0
BBX 9 15 0 0
BITMAP
3C00
6300
6300
C180
C180
C180
C180
C380
6780
3D80
0180
0380
4300
6700
3C00
ENDCHAR

STARTCHAR char58
ENCODING 58
SWIDTH 21 0
DWIDTH 5 0
BBX 2 10 2 0
BITMAP
C0
00
00
00
00
00
00
00
00
C0
ENDCHAR

STARTCHAR char59
ENCODING 59
SWIDTH 21 0
DWIDTH 5 0
BBX 2 13 2 -3
BITMAP
C0
00
00
00
00
00
00
00
00
C0
40
C0
80
ENDCHAR

STARTCHAR char60
ENCODING 60
SWIDTH 8 0
DWIDTH 12 0
BBX 11 11 0 0
BITMAP
0020
00E0
0380
0E00
3800
E000
7000
1C00
0700
01C0
0060
ENDCHAR

STARTCHAR char61
ENCODING 61
SWIDTH 3 0
DWIDTH 11 0
BBX 11 4 -1 4
BITMAP
FFE0
0000
0000
FFE0
ENDCHAR

STARTCHAR char62
ENCODING 62
SWIDTH 8 0
DWIDTH 12 0
BBX 11 11 0 0
BITMAP
8000
E000
3800
0F00
01C0
0060
00E0
0780
1C00
7000
C000
ENDCHAR

STARTCHAR char63
ENCODING 63
SWIDTH 38 0
DWIDTH 9 0
BBX 8 15 1 0
BITMAP
3C
66
C7
C3
C3
07
06
0C
08
18
18
00
00
00
10
ENDCHAR

STARTCHAR char64
ENCODING 64
SWIDTH 11 0
DWIDTH 23 0
BBX 15 15 3 0
BITMAP
07E0
1838
300C
6394
6676
CC66
D826
D826
D866
D844
4CC8
6770
3004
1818
07E0
ENDCHAR

STARTCHAR char65
ENCODING 65
SWIDTH 3 0
DWIDTH 11 0
BBX 11 15 -1 0
BITMAP
0600
0E00
0F00
0B00
1900
1980
1980
1180
3080
30C0
3FC0
60C0
6060
6060
4060
ENDCHAR

STARTCHAR char66
ENCODING 66
SWIDTH 3 0
DWIDTH 11 0
BBX 8 15 1 0
BITMAP
FC
C6
C3
C3
C3
C3
C6
FC
C3
C3
C3
C3
C3
C7
FC
ENDCHAR

STARTCHAR char67
ENCODING 67
SWIDTH 3 0
DWIDTH 11 0
BBX 9 15 0 0
BITMAP
1E00
3300
6180
6180
C080
C000
C000
C000
C000
C000
C080
E180
6180
7300
3E00
ENDCHAR

STARTCHAR char68
ENCODING 68
SWIDTH 3 0
DWIDTH 11 0
BBX 10 15 0 0
BITMAP
8000
FF00
C180
C1C0
C0C0
C0C0
C0C0
C0C0
C0C0
C0C0
C0C0
C180
C180
C780
FE00
ENDCHAR

STARTCHAR char69
ENCODING 69
SWIDTH 43 0
DWIDTH 10 0
BBX 8 15 1 0
BITMAP
FF
C0
C0
C0
C0
C0
C0
FE
C0
C0
C0
C0
C0
C0
FF
ENDCHAR

STARTCHAR char70
ENCODING 70
SWIDTH 38 0
DWIDTH 9 0
BBX 8 15 1 0
BITMAP
FF
C0
C0
C0
C0
C0
C0
FE
C0
C0
C0
C0
C0
C0
C0
ENDCHAR

STARTCHAR char71
ENCODING 71
SWIDTH 3 0
DWIDTH 11 0
BBX 10 15 0 0
BITMAP
1F00
7380
61C0
E1C0
C0C0
C000
C000
C000
C7C0
C0C0
C0C0
C0C0
61C0
71C0
3EC0
ENDCHAR

STARTCHAR char72
ENCODING 72
SWIDTH 3 0
DWIDTH 11 0
BBX 9 15 0 0
BITMAP
C180
C180
C180
C180
C180
C180
C180
FF80
C180
C180
C180
C180
C180
C180
C180
ENDCHAR

STARTCHAR char73
ENCODING 73
SWIDTH 17 0
DWIDTH 4 0
BBX 2 15 1 0
BITMAP
C0
C0
C0
C0
C0
C0
C0
C0
C0
C0
C0
C0
C0
C0
C0
ENDCHAR

STARTCHAR char74
ENCODING 74
SWIDTH 34 0
DWIDTH 8 0
BBX 8 15 -1 0
BITMAP
03
03
03
03
03
03
03
03
03
03
C3
C3
C3
66
3C
ENDCHAR

STARTCHAR char75
ENCODING 75
SWIDTH 43 0
DWIDTH 10 0
BBX 9 15 1 0
BITMAP
8180
8300
8600
8E00
8C00
9800
B000
F800
F800
CC00
C600
C600
C300
C300
C180
ENDCHAR

STARTCHAR char76
ENCODING 76
SWIDTH 38 0
DWIDTH 9 0
BBX 8 15 1 0
BITMAP
C0
C0
C0
C0
C0
C0
C0
C0
C0
C0
C0
C0
C0
C0
FF
ENDCHAR

STARTCHAR char77
ENCODING 77
SWIDTH 16 0
DWIDTH 14 0
BBX 12 15 0 0
BITMAP
E030
F070
F070
F070
D070
D8F0
D8F0
D8B0
C9B0
CDB0
CD30
C530
C730
C730
C630
ENDCHAR

STARTCHAR char78
ENCODING 78
SWIDTH 3 0
DWIDTH 11 0
BBX 9 15 0 0
BITMAP
E180
E180
F180
F180
D180
D980
C980
C980
CD80
C580
C580
C380
C380
C380
C180
ENDCHAR

STARTCHAR char79
ENCODING 79
SWIDTH 3 0
DWIDTH 11 0
BBX 10 15 0 0
BITMAP
1E00
7380
6180
C1C0
C0C0
C0C0
C0C0
C0C0
C0C0
C0C0
C0C0
C0C0
6180
6380
3F00
ENDCHAR

STARTCHAR char80
ENCODING 80
SWIDTH 38 0
DWIDTH 9 0
BBX 8 15 1 0
BITMAP
FC
C6
C3
C3
C3
C3
C7
FE
F8
80
80
80
80
80
80
ENDCHAR

STARTCHAR char81
ENCODING 81
SWIDTH 3 0
DWIDTH 11 0
BBX 10 16 0 -1
BITMAP
1E00
7380
6180
C1C0
C0C0
C0C0
C0C0
C0C0
C0C0
C0C0
C0C0
C2C0
6380
6380
3EC0
0040
ENDCHAR

STARTCHAR char82
ENCODING 82
SWIDTH 43 0
DWIDTH 10 0
BBX 9 15 0 0
BITMAP
FE00
C700
C180
C180
C180
C180
C300
FE00
C300
C180
C180
C180
C180
C180
C180
ENDCHAR

STARTCHAR char83
ENCODING 83
SWIDTH 43 0
DWIDTH 10 0
BBX 9 15 0 0
BITMAP
3E00
6300
C180
C180
C000
E000
7800
3E00
0700
0180
C180
C180
C180
6300
3E00
ENDCHAR

STARTCHAR char84
ENCODING 84
SWIDTH 38 0
DWIDTH 9 0
BBX 9 15 0 0
BITMAP
FF80
1F80
1800
1800
1800
1800
1800
1800
1800
1800
1800
1800
1800
1800
1800
ENDCHAR

STARTCHAR char85
ENCODING 85
SWIDTH 3 0
DWIDTH 11 0
BBX 9 15 0 0
BITMAP
C180
C180
C180
C180
C180
C180
C180
C180
C180
C180
C180
C180
C180
7300
3E00
ENDCHAR

STARTCHAR char86
ENCODING 86
SWIDTH 3 0
DWIDTH 11 0
BBX 11 15 -1 0
BITMAP
6060
6060
60C0
60C0
30C0
3080
3180
3180
1980
1900
1B00
0B00
0E00
0E00
0E00
ENDCHAR

STARTCHAR char87
ENCODING 87
SWIDTH 25 0
DWIDTH 16 0
BBX 15 15 -1 0
BITMAP
C182
4186
4386
63C6
63C6
62C4
2244
264C
366C
366C
3468
1428
1438
1C38
1C30
ENDCHAR

STARTCHAR char88
ENCODING 88
SWIDTH 3 0
DWIDTH 11 0
BBX 11 15 -1 0
BITMAP
60C0
60C0
31C0
1180
1B00
0B00
0E00
0600
0E00
1B00
1B00
3180
3180
60C0
60E0
ENDCHAR

STARTCHAR char89
ENCODING 89
SWIDTH 43 0
DWIDTH 10 0
BBX 11 15 -1 0
BITMAP
60C0
60C0
20C0
3180
3100
1300
1E00
1E00
0C00
0C00
0C00
0C00
0C00
0C00
0C00
ENDCHAR

STARTCHAR char90
ENCODING 90
SWIDTH 43 0
DWIDTH 10 0
BBX 9 15 0 0
BITMAP
FF80
0300
0300
0600
0600
0C00
0C00
1800
1800
3000
3000
6000
6000
C000
FF80
ENDCHAR

STARTCHAR char91
ENCODING 91
SWIDTH 21 0
DWIDTH 5 0
BBX 4 18 1 -3
BITMAP
F0
C0
C0
C0
C0
C0
C0
C0
C0
C0
C0
C0
C0
C0
C0
C0
C0
F0
ENDCHAR

STARTCHAR char92
ENCODING 92
SWIDTH 25 0
DWIDTH 6 0
BBX 6 15 0 0
BITMAP
80
C0
40
40
60
20
20
30
10
10
18
18
08
0C
0C
ENDCHAR

STARTCHAR char93
ENCODING 93
SWIDTH 21 0
DWIDTH 5 0
BBX 4 18 0 -3
BITMAP
F0
30
30
30
30
30
30
30
30
30
30
30
30
30
30
30
30
F0
ENDCHAR

STARTCHAR char94
ENCODING 94
SWIDTH 0 0
DWIDTH 0 0
BBX 6 3 -3 16
BITMAP
70
58
8C
ENDCHAR

STARTCHAR char95
ENCODING 95
SWIDTH 8 0
DWIDTH 12 0
BBX 12 1 0 -3
BITMAP
FFF0
ENDCHAR

STARTCHAR char96
ENCODING 96
SWIDTH 0 0
DWIDTH 0 0
BBX 4 3 -3 12
BITMAP
60
60
30
ENDCHAR

STARTCHAR char97
ENCODING 97
SWIDTH 38 0
DWIDTH 9 0
BBX 8 11 0 0
BITMAP
3C
66
C6
06
06
3E
66
C6
C6
C6
7B
ENDCHAR

STARTCHAR char98
ENCODING 98
SWIDTH 38 0
DWIDTH 9 0
BBX 7 15 1 0
BITMAP
80
80
80
80
B8
CC
C6
C6
C6
C6
C6
C6
C6
E4
D8
ENDCHAR

STARTCHAR char99
ENCODING 99
SWIDTH 34 0
DWIDTH 8 0
BBX 8 11 0 0
BITMAP
3C
66
C2
C3
C0
C0
C0
C3
C2
66
3C
ENDCHAR

STARTCHAR char100
ENCODING 100
SWIDTH 38 0
DWIDTH 9 0
BBX 8 15 0 0
BITMAP
03
03
03
03
3F
67
43
C3
C3
C3
C3
C3
C3
67
3F
ENDCHAR

STARTCHAR char101
ENCODING 101
SWIDTH 34 0
DWIDTH 8 0
BBX 8 11 0 0
BITMAP
3C
66
C2
C2
C3
FF
C0
C2
C2
66
3C
ENDCHAR

STARTCHAR char102
ENCODING 102
SWIDTH 21 0
DWIDTH 5 0
BBX 5 15 0 0
BITMAP
18
78
60
60
F8
60
60
60
60
60
60
60
60
60
60
ENDCHAR

STARTCHAR char103
ENCODING 103
SWIDTH 38 0
DWIDTH 9 0
BBX 8 14 0 -3
BITMAP
39
67
43
C3
C3
C3
C3
C3
C3
67
3B
03
C3
7E
ENDCHAR

STARTCHAR char104
ENCODING 104
SWIDTH 38 0
DWIDTH 9 0
BBX 7 15 1 0
BITMAP
C0
C0
C0
C0
FC
C6
C6
C6
C6
C6
C6
C6
C6
C6
C6
ENDCHAR

STARTCHAR char105
ENCODING 105
SWIDTH 17 0
DWIDTH 4 0
BBX 2 14 1 0
BITMAP
C0
00
00
C0
C0
C0
C0
C0
C0
C0
C0
C0
C0
C0
ENDCHAR

STARTCHAR char106
ENCODING 106
SWIDTH 17 0
DWIDTH 4 0
BBX 4 17 -1 -3
BITMAP
30
00
00
30
30
30
30
30
30
30
30
30
30
30
30
30
E0
ENDCHAR

STARTCHAR char107
ENCODING 107
SWIDTH 38 0
DWIDTH 9 0
BBX 8 15 1 0
BITMAP
C0
C0
C0
C0
C6
C4
CC
D8
F0
F8
D8
CC
C4
C6
C3
ENDCHAR

STARTCHAR char108
ENCODING 108
SWIDTH 17 0
DWIDTH 4 0
BBX 2 15 1 0
BITMAP
C0
C0
C0
C0
C0
C0
C0
C0
C0
C0
C0
C0
C0
C0
C0
ENDCHAR

STARTCHAR char109
ENCODING 109
SWIDTH 20 0
DWIDTH 15 0
BBX 13 11 0 0
BITMAP
DEF0
E7B8
C318
C318
C318
C318
C318
C318
C318
C318
C318
ENDCHAR

STARTCHAR char110
ENCODING 110
SWIDTH 38 0
DWIDTH 9 0
BBX 7 11 1 0
BITMAP
FC
CE
C6
C6
C6
C6
C6
C6
C6
C6
C6
ENDCHAR

STARTCHAR char111
ENCODING 111
SWIDTH 38 0
DWIDTH 9 0
BBX 8 11 0 0
BITMAP
3C
66
C2
C3
C3
C3
C3
C3
C3
66
3C
ENDCHAR

STARTCHAR char112
ENCODING 112
SWIDTH 38 0
DWIDTH 9 0
BBX 7 14 1 -3
BITMAP
F8
EC
C6
C6
C6
C6
C6
C6
C6
CC
F8
C0
C0
C0
ENDCHAR

STARTCHAR char113
ENCODING 113
SWIDTH 38 0
DWIDTH 9 0
BBX 8 14 0 -3
BITMAP
3B
67
C3
C3
C3
C3
C3
C3
C3
67
3B
03
03
03
ENDCHAR

STARTCHAR char114
ENCODING 114
SWIDTH 25 0
DWIDTH 6 0
BBX 5 11 1 0
BITMAP
D8
F8
C0
C0
C0
C0
C0
C0
C0
C0
C0
ENDCHAR

STARTCHAR char115
ENCODING 115
SWIDTH 34 0
DWIDTH 8 0
BBX 7 11 0 0
BITMAP
3C
64
C6
C0
70
3C
0E
06
C6
C6
78
ENDCHAR

STARTCHAR char116
ENCODING 116
SWIDTH 21 0
DWIDTH 5 0
BBX 5 14 0 0
BITMAP
60
60
60
F8
60
60
60
60
60
60
60
60
60
38
ENDCHAR

STARTCHAR char117
ENCODING 117
SWIDTH 38 0
DWIDTH 9 0
BBX 7 11 1 0
BITMAP
C6
C6
C6
C6
C6
C6
C6
C6
C6
CE
7E
ENDCHAR

STARTCHAR char118
ENCODING 118
SWIDTH 34 0
DWIDTH 8 0
BBX 8 11 0 0
BITMAP
C3
C3
42
46
66
64
24
2C
38
18
18
ENDCHAR

STARTCHAR char119
ENCODING 119
SWIDTH 12 0
DWIDTH 13 0
BBX 13 11 -1 0
BITMAP
6318
4718
6518
6510
2530
25B0
3CA0
3CA0
38E0
18C0
18C0
ENDCHAR

STARTCHAR char120
ENCODING 120
SWIDTH 38 0
DWIDTH 9 0
BBX 8 11 0 0
BITMAP
C3
66
66
3C
18
18
3C
2C
66
C2
C3
ENDCHAR

STARTCHAR char121
ENCODING 121
SWIDTH 38 0
DWIDTH 9 0
BBX 8 14 0 -3
BITMAP
C3
C3
C3
42
66
66
24
3C
3C
18
18
18
10
F0
ENDCHAR

STARTCHAR char122
ENCODING 122
SWIDTH 30 0
DWIDTH 7 0
BBX 7 11 0 0
BITMAP
FE
06
0C
0C
18
10
30
60
60
C0
FE
ENDCHAR

STARTCHAR char123
ENCODING 123
SWIDTH 30 0
DWIDTH 7 0
BBX 5 19 1 -4
BITMAP
38
70
60
60
20
20
20
60
40
80
60
60
60
60
60
60
60
70
38
ENDCHAR

STARTCHAR char124
ENCODING 124
SWIDTH 25 0
DWIDTH 6 0
BBX 2 15 2 0
BITMAP
C0
C0
C0
C0
C0
C0
C0
C0
C0
C0
C0
C0
C0
C0
C0
ENDCHAR

STARTCHAR char125
ENCODING 125
SWIDTH 30 0
DWIDTH 7 0
BBX 5 19 1 -4
BITMAP
C0
20
20
20
30
30
30
30
10
08
10
30
30
30
30
30
30
70
E0
ENDCHAR

STARTCHAR char126
ENCODING 126
SWIDTH 0 0
DWIDTH 0 0
BBX 7 2 -4 16
BITMAP
72
4C
ENDCHAR

STARTCHAR char128
ENCODING 128
SWIDTH 3 0
DWIDTH 11 0
BBX 12 15 -2 0
BITMAP
07C0
0EE0
0C20
1830
1830
7FC0
1800
7F80
1800
1800
1830
1830
0820
0C60
07C0
ENDCHAR

STARTCHAR char130
ENCODING 130
SWIDTH 12 0
DWIDTH 3 0
BBX 2 4 1 -3
BITMAP
C0
40
C0
80
ENDCHAR

STARTCHAR char131
ENCODING 131
SWIDTH 0 0
DWIDTH 0 0
BBX 6 3 -3 16
BITMAP
70
58
8C
ENDCHAR

STARTCHAR char132
ENCODING 132
SWIDTH 34 0
DWIDTH 8 0
BBX 6 4 1 -3
BITMAP
DC
CC
C8
90
ENDCHAR

STARTCHAR char133
ENCODING 133
SWIDTH 7 0
DWIDTH 22 0
BBX 16 1 2 0
BITMAP
C183
ENDCHAR

STARTCHAR char134
ENCODING 134
SWIDTH 38 0
DWIDTH 9 0
BBX 9 18 0 -3
BITMAP
1800
1800
1800
1800
1800
FF80
1800
1800
1800
1800
1800
1800
1800
1800
1800
1800
1800
1800
ENDCHAR

STARTCHAR char135
ENCODING 135
SWIDTH 3 0
DWIDTH 21 0
BBX 0 0 0 0
BITMAP
ENDCHAR

STARTCHAR char136
ENCODING 136
SWIDTH 0 0
DWIDTH 0 0
BBX 6 3 -3 12
BITMAP
30
78
4C
ENDCHAR

STARTCHAR char137
ENCODING 137
SWIDTH 3 0
DWIDTH 21 0
BBX 0 0 0 0
BITMAP
ENDCHAR

STARTCHAR char139
ENCODING 139
SWIDTH 30 0
DWIDTH 7 0
BBX 3 7 2 2
BITMAP
20
60
C0
80
E0
60
20
ENDCHAR

STARTCHAR char140
ENCODING 140
SWIDTH 25 0
DWIDTH 16 0
BBX 15 15 0 0
BITMAP
3DFE
63FE
6180
C180
C180
C180
C180
C1FE
C180
C180
C180
C180
6180
7380
3DFE
ENDCHAR

STARTCHAR char142
ENCODING 142
SWIDTH 3 0
DWIDTH 21 0
BBX 0 0 0 0
BITMAP
ENDCHAR

STARTCHAR char144
ENCODING 144
SWIDTH 3 0
DWIDTH 21 0
BBX 0 0 0 0
BITMAP
ENDCHAR

STARTCHAR char145
ENCODING 145
SWIDTH 17 0
DWIDTH 4 0
BBX 2 5 1 10
BITMAP
40
C0
80
80
C0
ENDCHAR

STARTCHAR char146
ENCODING 146
SWIDTH 17 0
DWIDTH 4 0
BBX 2 4 1 10
BITMAP
C0
40
40
80
ENDCHAR

STARTCHAR char147
ENCODING 147
SWIDTH 34 0
DWIDTH 8 0
BBX 5 5 1 10
BITMAP
48
C8
90
D0
D8
ENDCHAR

STARTCHAR char148
ENCODING 148
SWIDTH 34 0
DWIDTH 8 0
BBX 5 5 1 10
BITMAP
C0
D8
48
48
90
ENDCHAR

STARTCHAR char149
ENCODING 149
SWIDTH 30 0
DWIDTH 7 0
BBX 5 5 1 5
BITMAP
70
F8
F8
F8
70
ENDCHAR

STARTCHAR char150
ENCODING 150
SWIDTH 43 0
DWIDTH 10 0
BBX 9 1 0 5
BITMAP
FF80
ENDCHAR

STARTCHAR char151
ENCODING 151
SWIDTH 3 0
DWIDTH 11 0
BBX 11 1 -1 6
BITMAP
FFE0
ENDCHAR

STARTCHAR char152
ENCODING 152
SWIDTH 0 0
DWIDTH 0 0
BBX 6 2 -3 12
BITMAP
F4
88
ENDCHAR

STARTCHAR char153
ENCODING 153
SWIDTH 33 0
DWIDTH 18 0
BBX 17 8 -1 6
BITMAP
608080
9FC180
98C280
18A280
18B580
189580
189980
39CB80
ENDCHAR

STARTCHAR char154
ENCODING 154
SWIDTH 3 0
DWIDTH 21 0
BBX 0 0 0 0
BITMAP
ENDCHAR

STARTCHAR char155
ENCODING 155
SWIDTH 30 0
DWIDTH 7 0
BBX 3 7 2 2
BITMAP
80
C0
60
20
E0
80
80
ENDCHAR

STARTCHAR char156
ENCODING 156
SWIDTH 16 0
DWIDTH 14 0
BBX 12 11 0 0
BITMAP
39E0
6730
C610
C610
C610
C7F0
C600
C600
C610
6730
39E0
ENDCHAR

STARTCHAR char159
ENCODING 159
SWIDTH 43 0
DWIDTH 10 0
BBX 11 18 -1 0
BITMAP
3300
0000
0000
60C0
60C0
6080
3180
3100
1300
1E00
1E00
0C00
0C00
0C00
0C00
0C00
0C00
0C00
ENDCHAR

STARTCHAR char160
ENCODING 160
SWIDTH 21 0
DWIDTH 5 0
BBX 0 0 0 0
BITMAP
ENDCHAR

STARTCHAR char161
ENCODING 161
SWIDTH 21 0
DWIDTH 5 0
BBX 2 15 1 0
BITMAP
C0
00
00
00
C0
C0
C0
C0
C0
C0
C0
C0
C0
C0
C0
ENDCHAR

STARTCHAR char162
ENCODING 162
SWIDTH 34 0
DWIDTH 8 0
BBX 8 15 0 -2
BITMAP
18
18
3E
7F
FB
DB
D8
D8
D0
D3
D3
76
7E
18
18
ENDCHAR

STARTCHAR char163
ENCODING 163
SWIDTH 43 0
DWIDTH 10 0
BBX 9 15 0 0
BITMAP
1E00
3300
7180
6180
6180
6000
3000
FE00
1800
1800
1800
1000
2000
7C80
6780
ENDCHAR

STARTCHAR char164
ENCODING 164
SWIDTH 0 0
DWIDTH 0 0
BBX 5 3 -1 16
BITMAP
38
60
80
ENDCHAR

STARTCHAR char165
ENCODING 165
SWIDTH 0 0
DWIDTH 0 0
BBX 6 3 -3 16
BITMAP
8C
58
70
ENDCHAR

STARTCHAR char166
ENCODING 166
SWIDTH 3 0
DWIDTH 21 0
BBX 0 0 0 0
BITMAP
ENDCHAR

STARTCHAR char167
ENCODING 167
SWIDTH 43 0
DWIDTH 10 0
BBX 9 18 0 -3
BITMAP
1C00
3600
6300
2000
3000
3800
6E00
4700
C300
6180
7100
1B00
0E00
0700
0300
6300
6200
3C00
ENDCHAR

STARTCHAR char168
ENCODING 168
SWIDTH 0 0
DWIDTH 0 0
BBX 6 1 -3 14
BITMAP
CC
ENDCHAR

STARTCHAR char169
ENCODING 169
SWIDTH 25 0
DWIDTH 16 0
BBX 15 14 0 0
BITMAP
0780
1860
2010
43C8
4C44
C846
D806
D806
D806
C804
4C4C
2388
1030
0FC0
ENDCHAR

STARTCHAR char170
ENCODING 170
SWIDTH 0 0
DWIDTH 0 0
BBX 6 1 -3 17
BITMAP
CC
ENDCHAR

STARTCHAR char171
ENCODING 171
SWIDTH 34 0
DWIDTH 8 0
BBX 7 8 0 2
BITMAP
22
22
66
CC
C8
6C
26
22
ENDCHAR

STARTCHAR char172
ENCODING 172
SWIDTH 16 0
DWIDTH 14 0
BBX 13 6 0 0
BITMAP
FFF8
0018
0018
0018
0018
0018
ENDCHAR

STARTCHAR char173
ENCODING 173
SWIDTH 3 0
DWIDTH 21 0
BBX 0 0 0 0
BITMAP
ENDCHAR

STARTCHAR char174
ENCODING 174
SWIDTH 25 0
DWIDTH 16 0
BBX 15 14 0 0
BITMAP
0780
1860
2010
6F88
4CCC
CCC4
CC86
CF06
CD86
CCC4
4EEC
6008
3030
0FC0
ENDCHAR

STARTCHAR char175
ENCODING 175
SWIDTH 3 0
DWIDTH 21 0
BBX 0 0 0 0
BITMAP
ENDCHAR

STARTCHAR char176
ENCODING 176
SWIDTH 21 0
DWIDTH 5 0
BBX 7 6 -1 8
BITMAP
38
44
C6
C6
46
3C
ENDCHAR

STARTCHAR char177
ENCODING 177
SWIDTH 3 0
DWIDTH 11 0
BBX 10 13 0 0
BITMAP
0C00
0C00
0C00
0C00
0C00
FFC0
0C00
0C00
0C00
0C00
0C00
0000
FFC0
ENDCHAR

STARTCHAR char178
ENCODING 178
SWIDTH 3 0
DWIDTH 21 0
BBX 0 0 0 0
BITMAP
ENDCHAR

STARTCHAR char179
ENCODING 179
SWIDTH 3 0
DWIDTH 21 0
BBX 0 0 0 0
BITMAP
ENDCHAR

STARTCHAR char180
ENCODING 180
SWIDTH 0 0
DWIDTH 0 0
BBX 4 3 -1 12
BITMAP
70
60
C0
ENDCHAR

STARTCHAR char181
ENCODING 181
SWIDTH 3 0
DWIDTH 21 0
BBX 0 0 0 0
BITMAP
ENDCHAR

STARTCHAR char182
ENCODING 182
SWIDTH 20 0
DWIDTH 15 0
BBX 9 18 2 -3
BITMAP
3F80
7980
F980
F980
F980
F980
F980
7980
1980
1980
1980
1980
1980
1980
1980
1980
1980
1980
ENDCHAR

STARTCHAR char183
ENCODING 183
SWIDTH 12 0
DWIDTH 3 0
BBX 2 2 1 5
BITMAP
C0
C0
ENDCHAR

STARTCHAR char184
ENCODING 184
SWIDTH 0 0
DWIDTH 0 0
BBX 2 3 -1 -4
BITMAP
C0
40
80
ENDCHAR

STARTCHAR char186
ENCODING 186
SWIDTH 0 0
DWIDTH 0 0
BBX 7 2 -4 16
BITMAP
72
4C
ENDCHAR

STARTCHAR char187
ENCODING 187
SWIDTH 34 0
DWIDTH 8 0
BBX 7 8 0 2
BITMAP
88
C8
6C
26
22
64
CC
88
ENDCHAR

STARTCHAR char188
ENCODING 188
SWIDTH 3 0
DWIDTH 21 0
BBX 0 0 0 0
BITMAP
ENDCHAR

STARTCHAR char191
ENCODING 191
SWIDTH 38 0
DWIDTH 9 0
BBX 8 15 0 0
BITMAP
18
00
00
00
18
18
18
30
60
C0
C0
C3
C2
66
3C
ENDCHAR

STARTCHAR char192
ENCODING 192
SWIDTH 3 0
DWIDTH 11 0
BBX 11 19 -1 0
BITMAP
3800
0C00
0600
0000
0600
0E00
0F00
0B00
1900
1980
1980
1180
3080
30C0
3FC0
60C0
6060
6060
4060
ENDCHAR

STARTCHAR char193
ENCODING 193
SWIDTH 3 0
DWIDTH 11 0
BBX 11 19 -1 0
BITMAP
0380
0300
0400
0000
0600
0E00
0F00
0B00
1900
1980
1980
1180
3080
30C0
3FC0
60C0
6060
6060
4060
ENDCHAR

STARTCHAR char194
ENCODING 194
SWIDTH 3 0
DWIDTH 11 0
BBX 11 19 -1 0
BITMAP
0E00
1B00
3180
0000
0600
0E00
0F00
0B00
1900
1980
1980
1180
3080
30C0
3FC0
60C0
6060
6060
4060
ENDCHAR

STARTCHAR char195
ENCODING 195
SWIDTH 3 0
DWIDTH 11 0
BBX 11 18 -1 0
BITMAP
1C80
2300
0000
0600
0E00
0F00
0B00
1900
1980
1980
1180
3080
30C0
3FC0
60C0
6060
6060
4060
ENDCHAR

STARTCHAR char196
ENCODING 196
SWIDTH 3 0
DWIDTH 11 0
BBX 11 18 -1 0
BITMAP
1980
0000
0000
0600
0E00
0F00
0B00
1900
1980
1180
1080
3080
30C0
3FC0
6040
6060
6060
4060
ENDCHAR

STARTCHAR char197
ENCODING 197
SWIDTH 3 0
DWIDTH 11 0
BBX 11 19 -1 0
BITMAP
0F00
0F00
0F00
0E00
0400
0600
0600
0A00
0B00
0B00
1B00
1180
1180
3080
3FC0
60C0
6040
6060
4060
ENDCHAR

STARTCHAR char198
ENCODING 198
SWIDTH 25 0
DWIDTH 16 0
BBX 16 15 -1 -1
BITMAP
03FF
06C0
04C0
0CC0
0CC0
08C0
18FF
18C0
30C0
3FC0
20C0
60C0
60C0
C0FF
8000
ENDCHAR

STARTCHAR char199
ENCODING 199
SWIDTH 3 0
DWIDTH 11 0
BBX 9 19 0 -4
BITMAP
1E00
3100
6180
6180
C080
C000
C000
C000
C000
C000
C080
E180
6180
7100
1E00
0000
0C00
0400
0800
ENDCHAR

STARTCHAR char200
ENCODING 200
SWIDTH 43 0
DWIDTH 10 0
BBX 8 19 1 0
BITMAP
E0
60
10
00
FF
C0
C0
C0
C0
C0
C0
FF
C0
C0
C0
C0
C0
C0
FF
ENDCHAR

STARTCHAR char201
ENCODING 201
SWIDTH 43 0
DWIDTH 10 0
BBX 8 19 1 0
BITMAP
0E
18
30
00
FF
C0
C0
C0
C0
C0
C0
FE
C0
C0
C0
C0
C0
C0
FF
ENDCHAR

STARTCHAR char202
ENCODING 202
SWIDTH 43 0
DWIDTH 10 0
BBX 8 19 1 0
BITMAP
38
78
C4
00
FF
C0
C0
C0
C0
C0
C0
FE
C0
C0
C0
C0
C0
C0
FF
ENDCHAR

STARTCHAR char203
ENCODING 203
SWIDTH 43 0
DWIDTH 10 0
BBX 8 18 1 0
BITMAP
4C
00
00
FF
C0
C0
C0
C0
C0
C0
FE
C0
C0
C0
C0
C0
C0
FF
ENDCHAR

STARTCHAR char204
ENCODING 204
SWIDTH 17 0
DWIDTH 4 0
BBX 5 19 -2 0
BITMAP
E0
30
18
00
18
18
18
18
18
18
18
18
18
18
18
18
18
18
18
ENDCHAR

STARTCHAR char205
ENCODING 205
SWIDTH 17 0
DWIDTH 4 0
BBX 5 19 1 0
BITMAP
30
60
80
00
C0
C0
C0
C0
C0
C0
C0
C0
C0
C0
C0
C0
C0
C0
C0
ENDCHAR

STARTCHAR char206
ENCODING 206
SWIDTH 17 0
DWIDTH 4 0
BBX 7 19 -2 0
BITMAP
38
6C
C6
00
18
18
18
18
18
18
18
18
18
18
18
18
18
18
18
ENDCHAR

STARTCHAR char207
ENCODING 207
SWIDTH 17 0
DWIDTH 4 0
BBX 5 18 -1 0
BITMAP
C8
00
00
30
30
30
30
30
30
30
30
30
30
30
30
30
30
30
ENDCHAR

STARTCHAR char208
ENCODING 208
SWIDTH 3 0
DWIDTH 21 0
BBX 0 0 0 0
BITMAP
ENDCHAR

STARTCHAR char209
ENCODING 209
SWIDTH 3 0
DWIDTH 11 0
BBX 9 18 0 0
BITMAP
7900
4600
0000
E180
E180
F180
F180
D180
D980
C980
C980
CD80
C580
C580
C380
C380
C380
C180
ENDCHAR

STARTCHAR char210
ENCODING 210
SWIDTH 3 0
DWIDTH 11 0
BBX 10 19 0 0
BITMAP
7000
1800
0C00
0000
1E00
7380
6180
C1C0
C0C0
C0C0
C0C0
C0C0
C0C0
C0C0
C0C0
C0C0
6180
6380
3F00
ENDCHAR

STARTCHAR char211
ENCODING 211
SWIDTH 3 0
DWIDTH 11 0
BBX 10 19 0 0
BITMAP
0780
0600
0800
0000
1E00
7380
6180
C1C0
C0C0
C0C0
C0C0
C0C0
C0C0
C0C0
C0C0
C0C0
6180
6380
3F00
ENDCHAR

STARTCHAR char212
ENCODING 212
SWIDTH 3 0
DWIDTH 11 0
BBX 10 19 0 0
BITMAP
1C00
3600
6300
0000
1E00
7380
6180
C1C0
C0C0
C0C0
C0C0
C0C0
C0C0
C0C0
C0C0
C0C0
6180
6380
3F00
ENDCHAR

STARTCHAR char213
ENCODING 213
SWIDTH 3 0
DWIDTH 11 0
BBX 10 18 0 0
BITMAP
3900
4600
0000
1E00
7380
6180
C1C0
C0C0
C0C0
C0C0
C0C0
C0C0
C0C0
C0C0
C0C0
6180
6380
3F00
ENDCHAR

STARTCHAR char214
ENCODING 214
SWIDTH 3 0
DWIDTH 11 0
BBX 10 18 0 0
BITMAP
3300
0000
0000
1E00
7380
6180
C0C0
C0C0
C0C0
C0C0
C0C0
C0C0
C0C0
C0C0
C0C0
6180
6380
3F00
ENDCHAR

STARTCHAR char215
ENCODING 215
SWIDTH 3 0
DWIDTH 21 0
BBX 0 0 0 0
BITMAP
ENDCHAR

STARTCHAR char216
ENCODING 216
SWIDTH 3 0
DWIDTH 11 0
BBX 10 15 0 0
BITMAP
1E40
73C0
6180
E1C0
C1C0
C2C0
C4C0
C4C0
C8C0
D0C0
D0C0
E0C0
6180
7380
BF00
ENDCHAR

STARTCHAR char217
ENCODING 217
SWIDTH 3 0
DWIDTH 11 0
BBX 9 19 0 0
BITMAP
F000
3800
0800
0000
C180
C180
C180
C180
C180
C180
C180
C180
C180
C180
C180
C180
C180
7300
3E00
ENDCHAR

STARTCHAR char218
ENCODING 218
SWIDTH 3 0
DWIDTH 11 0
BBX 9 19 0 0
BITMAP
0700
0E00
0800
0000
C180
C180
C180
C180
C180
C180
C180
C180
C180
C180
C180
C180
C180
7300
3E00
ENDCHAR

STARTCHAR char219
ENCODING 219
SWIDTH 3 0
DWIDTH 11 0
BBX 9 19 0 0
BITMAP
1C00
3600
6200
0000
C180
C180
C180
C180
C180
C180
C180
C180
C180
C180
C180
C180
C180
7300
3E00
ENDCHAR

STARTCHAR char220
ENCODING 220
SWIDTH 3 0
DWIDTH 11 0
BBX 9 18 0 0
BITMAP
3200
0000
0000
C180
C180
C180
C180
C180
C180
C180
C180
C180
C180
C180
C180
C180
6300
3E00
ENDCHAR

STARTCHAR char221
ENCODING 221
SWIDTH 3 0
DWIDTH 21 0
BBX 0 0 0 0
BITMAP
ENDCHAR

STARTCHAR char223
ENCODING 223
SWIDTH 38 0
DWIDTH 9 0
BBX 7 15 1 0
BITMAP
3C
4C
C6
C6
C6
C6
D8
CC
C6
C6
C2
C6
C6
C6
DC
ENDCHAR

STARTCHAR char224
ENCODING 224
SWIDTH 38 0
DWIDTH 9 0
BBX 8 15 0 0
BITMAP
60
30
10
00
3C
66
C6
06
06
3E
66
C6
C6
C6
7B
ENDCHAR

STARTCHAR char225
ENCODING 225
SWIDTH 38 0
DWIDTH 9 0
BBX 8 15 0 0
BITMAP
0C
0C
18
00
3C
66
C6
06
06
3E
66
C6
C6
C6
7B
ENDCHAR

STARTCHAR char226
ENCODING 226
SWIDTH 38 0
DWIDTH 9 0
BBX 8 15 0 0
BITMAP
18
38
64
00
3C
66
C6
06
06
3E
66
C6
C6
C6
7B
ENDCHAR

STARTCHAR char227
ENCODING 227
SWIDTH 38 0
DWIDTH 9 0
BBX 8 14 0 0
BITMAP
7E
44
00
3C
66
C6
06
06
3E
66
C6
C6
C6
7B
ENDCHAR

STARTCHAR char228
ENCODING 228
SWIDTH 38 0
DWIDTH 9 0
BBX 8 15 0 0
BITMAP
26
00
00
00
3E
66
C2
02
06
3E
62
C2
C6
C6
7B
ENDCHAR

STARTCHAR char229
ENCODING 229
SWIDTH 38 0
DWIDTH 9 0
BBX 8 16 0 0
BITMAP
18
24
36
18
00
3C
47
C3
03
07
3F
E3
C3
C3
E7
7D
ENDCHAR

STARTCHAR char230
ENCODING 230
SWIDTH 12 0
DWIDTH 13 0
BBX 12 11 0 0
BITMAP
39C0
4E60
C620
0630
0630
1FF0
6600
C630
C630
CE20
79C0
ENDCHAR

STARTCHAR char231
ENCODING 231
SWIDTH 34 0
DWIDTH 8 0
BBX 8 15 0 -4
BITMAP
1C
66
42
C3
C0
C0
C0
C3
C2
66
3C
00
18
08
10
ENDCHAR

STARTCHAR char232
ENCODING 232
SWIDTH 34 0
DWIDTH 8 0
BBX 8 15 0 0
BITMAP
60
30
10
00
3C
66
C2
C2
C3
FF
C0
C2
C2
66
3C
ENDCHAR

STARTCHAR char233
ENCODING 233
SWIDTH 34 0
DWIDTH 8 0
BBX 8 15 0 0
BITMAP
0E
18
18
00
3C
66
C2
C2
C3
FF
C0
C2
C2
66
3C
ENDCHAR

STARTCHAR char234
ENCODING 234
SWIDTH 34 0
DWIDTH 8 0
BBX 8 15 0 0
BITMAP
18
28
6C
00
3C
66
C2
C2
C3
FF
C0
C2
C2
66
3C
ENDCHAR

STARTCHAR char235
ENCODING 235
SWIDTH 34 0
DWIDTH 8 0
BBX 8 15 0 0
BITMAP
6C
00
00
00
3C
66
C6
C6
C7
FF
C0
C2
C2
66
3C
ENDCHAR

STARTCHAR char236
ENCODING 236
SWIDTH 17 0
DWIDTH 4 0
BBX 4 15 -1 0
BITMAP
E0
60
30
00
30
30
30
30
30
30
30
30
30
30
30
ENDCHAR

STARTCHAR char237
ENCODING 237
SWIDTH 17 0
DWIDTH 4 0
BBX 4 15 1 0
BITMAP
70
60
C0
00
C0
C0
C0
C0
C0
C0
C0
C0
C0
C0
C0
ENDCHAR

STARTCHAR char238
ENCODING 238
SWIDTH 17 0
DWIDTH 4 0
BBX 6 15 -1 0
BITMAP
30
78
C8
00
30
30
30
30
30
30
30
30
30
30
30
ENDCHAR

STARTCHAR char239
ENCODING 239
SWIDTH 17 0
DWIDTH 4 0
BBX 5 15 -1 0
BITMAP
C8
00
00
00
30
30
30
30
30
30
30
30
30
30
30
ENDCHAR

STARTCHAR char241
ENCODING 241
SWIDTH 38 0
DWIDTH 9 0
BBX 7 14 1 0
BITMAP
F4
C8
00
FC
CE
C6
C6
C6
C6
C6
C6
C6
C6
C6
ENDCHAR

STARTCHAR char242
ENCODING 242
SWIDTH 38 0
DWIDTH 9 0
BBX 8 15 0 0
BITMAP
60
30
10
00
3C
66
C2
C3
C3
C3
C3
C3
C3
66
3C
ENDCHAR

STARTCHAR char243
ENCODING 243
SWIDTH 38 0
DWIDTH 9 0
BBX 8 15 0 0
BITMAP
0E
0C
18
00
3C
66
C2
C3
C3
C3
C3
C3
C3
66
3C
ENDCHAR

STARTCHAR char244
ENCODING 244
SWIDTH 38 0
DWIDTH 9 0
BBX 8 15 0 0
BITMAP
18
38
64
00
3C
66
C2
C3
C3
C3
C3
C3
C3
66
3C
ENDCHAR

STARTCHAR char245
ENCODING 245
SWIDTH 38 0
DWIDTH 9 0
BBX 8 14 0 0
BITMAP
7E
C4
00
3C
66
C2
C3
C3
C3
C3
C3
C3
66
3C
ENDCHAR

STARTCHAR char246
ENCODING 246
SWIDTH 38 0
DWIDTH 9 0
BBX 8 15 0 0
BITMAP
64
00
00
00
3C
66
43
C3
C3
C3
C3
C3
C3
66
3C
ENDCHAR

STARTCHAR char247
ENCODING 247
SWIDTH 3 0
DWIDTH 11 0
BBX 10 7 0 2
BITMAP
0C00
0000
0000
FFC0
0000
0000
0C00
ENDCHAR

STARTCHAR char248
ENCODING 248
SWIDTH 38 0
DWIDTH 9 0
BBX 8 13 0 -1
BITMAP
01
3D
66
C7
C7
CB
CB
D3
E3
E3
66
BC
80
ENDCHAR

STARTCHAR char249
ENCODING 249
SWIDTH 38 0
DWIDTH 9 0
BBX 7 15 1 0
BITMAP
60
60
30
00
C6
C6
C6
C6
C6
C6
C6
C6
C6
CE
7E
ENDCHAR

STARTCHAR char250
ENCODING 250
SWIDTH 38 0
DWIDTH 9 0
BBX 7 15 1 0
BITMAP
1C
18
30
00
C6
C6
C6
C6
C6
C6
C6
C6
C6
CE
7E
ENDCHAR

STARTCHAR char251
ENCODING 251
SWIDTH 38 0
DWIDTH 9 0
BBX 7 15 1 0
BITMAP
30
78
4C
00
C6
C6
C6
C6
C6
C6
C6
C6
C6
CE
7E
ENDCHAR

STARTCHAR char252
ENCODING 252
SWIDTH 38 0
DWIDTH 9 0
BBX 7 15 1 0
BITMAP
4C
00
00
00
C6
C6
C6
C6
C6
C6
C6
C6
C6
CE
76
ENDCHAR

STARTCHAR char255
ENCODING 255
SWIDTH 38 0
DWIDTH 9 0
BBX 8 18 0 -3
BITMAP
6C
00
00
00
C1
C3
C3
66
66
6E
2C
3C
3C
18
18
18
30
F0
ENDCHAR
ENDFONT
